HIERARCHY
ROOT Hips
{
	OFFSET 0.000000 0.000000 0.000000
	CHANNELS 6 Xposition Yposition Zposition Zrotation Yrotation Xrotation 
	JOINT LowerBack
	{
		OFFSET 0.000000 0.000000 0.000000
		CHANNELS 3 Zrotation Yrotation Xrotation
		JOINT Spine
		{
			OFFSET 0.028270 2.035590 -0.193380
			CHANNELS 3 Zrotation Yrotation Xrotation
			JOINT Spine1
			{
				OFFSET 0.056720 2.048850 -0.042750
				CHANNELS 3 Zrotation Yrotation Xrotation
				JOINT Neck
				{
					OFFSET 0.000000 0.000000 0.000000
					CHANNELS 3 Zrotation Yrotation Xrotation
					JOINT Neck1
					{
						OFFSET -0.054170 1.746240 0.172020
						CHANNELS 3 Zrotation Yrotation Xrotation
						JOINT Head
						{
							OFFSET 0.104070 1.761360 -0.123970
							CHANNELS 3 Zrotation Yrotation Xrotation
							End Site
							{
								OFFSET 0.000000 0.000000 0.000000
							}
						}
					}
				}
				JOINT LeftShoulder
				{
					OFFSET 0.000000 0.000000 0.000000
					CHANNELS 3 Zrotation Yrotation Xrotation
					JOINT LeftArm
					{
						OFFSET 3.362410 1.200890 -0.311210
						CHANNELS 3 Zrotation Yrotation Xrotation
						JOINT LeftForeArm
						{
							OFFSET 4.983000 -0.000000 -0.000000
							CHANNELS 3 Zrotation Yrotation Xrotation
							JOINT LeftHand
							{
								OFFSET 3.483560 -0.000000 -0.000000
								CHANNELS 3 Zrotation Yrotation Xrotation
								JOINT LeftFingerBase
								{
									OFFSET 0.000000 0.000000 0.000000
									CHANNELS 3 Zrotation Yrotation Xrotation
									JOINT LeftHandIndex1
									{
										OFFSET 0.715260 -0.000000 -0.000000
										CHANNELS 3 Zrotation Yrotation Xrotation
										End Site
										{
											OFFSET 0.000000 0.000000 0.000000
										}
									}
								}
								JOINT LThumb
								{
									OFFSET 0.000000 0.000000 0.000000
									CHANNELS 3 Zrotation Yrotation Xrotation
									End Site
									{
										OFFSET 0.000000 0.000000 0.000000
									}
								}
							}
						}
					}
				}
				JOINT RightShoulder
				{
					OFFSET 0.000000 0.000000 0.000000
					CHANNELS 3 Zrotation Yrotation Xrotation
					JOINT RightArm
					{
						OFFSET -3.136600 1.374050 -0.404650
						CHANNELS 3 Zrotation Yrotation Xrotation
						JOINT RightForeArm
						{
							OFFSET -5.241900 -0.000000 -0.000000
							CHANNELS 3 Zrotation Yrotation Xrotation
							JOINT RightHand
							{
								OFFSET -3.444170 -0.000000 -0.000000
								CHANNELS 3 Zrotation Yrotation Xrotation
								JOINT RightFingerBase
								{
									OFFSET 0.000000 0.000000 0.000000
									CHANNELS 3 Zrotation Yrotation Xrotation
									JOINT RightHandIndex1
									{
										OFFSET -0.622530 -0.000000 -0.000000
										CHANNELS 3 Zrotation Yrotation Xrotation
										End Site
										{
											OFFSET 0.000000 0.000000 0.000000
										}
									}
								}
								JOINT RThumb
								{
									OFFSET 0.000000 0.000000 0.000000
									CHANNELS 3 Zrotation Yrotation Xrotation
									End Site
									{
										OFFSET 0.000000 0.000000 0.000000
									}
								}
							}
						}
					}
				}
			}
		}
	}
}
}
MOTION
Frames: 18
Frame Time: 0.008333
3.740114 17.314072 2.109450 -10.320783 -65.820368 18.799350 -2.267446 -2.612355 -4.057375 -1.033193 -2.567629 -2.949595 -5.758828 -2.563440 2.860012 12.482094 -15.953297 -7.518950 -1.929058 -0.150844 0.028309 0.000000 0.000000 0.000000 -0.658493 14.266515 -0.759102 -64.005871 -2.551148 -19.305289 -1.193397 -62.314906 -0.064228 21.121208 -6.368410 -1.251599 -0.258002 0.269397 0.000000 0.000000 0.000000 0.000000 0.000000 0.000000 0.000000 11.753403 -14.099961 -0.009244 72.578023 -15.466745 -30.158342 3.062249 26.549299 0.020279 -12.061997 11.505459 -1.246756 0.185637 -0.088805 -0.000000 0.000000 0.000000 0.000000 0.000000 0.000000 0.000000 
3.758538 17.329163 2.141890 -11.033925 -65.814452 19.188707 -1.927232 -2.694555 -3.862236 -0.958613 -2.672087 -2.908171 -5.734515 -2.664108 2.863517 12.453319 -16.121506 -7.492336 -1.935644 -0.151520 0.034314 0.000000 0.000000 0.000000 -0.634087 14.112654 -0.771967 -64.034916 -3.051586 -19.699418 -1.191824 -62.192093 -0.066318 21.213659 -6.310080 -1.246715 -0.257155 0.272988 0.000000 0.000000 0.000000 0.000000 0.000000 0.000000 0.000000 11.771418 -14.360276 -0.034592 72.523402 -15.846992 -30.469171 3.036760 27.070549 0.019852 -12.295014 11.413407 -1.260859 0.187759 -0.089749 -0.000000 0.000000 0.000000 0.000000 0.000000 0.000000 0.000000 
3.778019 17.344719 2.174275 -11.773556 -65.943942 19.721316 -1.570419 -2.767815 -3.729386 -0.880184 -2.769401 -2.880633 -5.710682 -2.758741 2.865970 12.431910 -16.268652 -7.477201 -1.941629 -0.152086 0.038038 0.000000 0.000000 0.000000 -0.576778 13.951562 -0.776130 -64.058778 -3.486495 -20.103456 -1.188702 -62.096404 -0.068358 21.267118 -6.221305 -1.233631 -0.256223 0.276484 0.000000 0.000000 0.000000 0.000000 0.000000 0.000000 0.000000 11.785484 -14.582473 -0.055912 72.386271 -16.125745 -30.667496 3.004945 27.722947 0.019310 -12.525359 11.327852 -1.275059 0.189645 -0.091093 -0.000000 0.000000 0.000000 0.000000 0.000000 0.000000 0.000000 
3.798367 17.360584 2.206600 -12.549209 -66.208900 20.407558 -1.196604 -2.832214 -3.656825 -0.797977 -2.859739 -2.867079 -5.688136 -2.847446 2.865905 12.416505 -16.387082 -7.472099 -1.947020 -0.152562 0.039904 0.000000 0.000000 0.000000 -0.490692 13.776111 -0.770750 -64.060458 -3.833490 -20.513850 -1.183482 -62.044266 -0.070320 21.283868 -6.098785 -1.211846 -0.255230 0.279784 0.000000 0.000000 0.000000 0.000000 0.000000 0.000000 0.000000 11.791238 -14.759388 -0.071443 72.173267 -16.292913 -30.783037 2.968134 28.470648 0.018668 -12.739141 11.254278 -1.288557 0.191186 -0.092847 -0.000000 0.000000 0.000000 0.000000 0.000000 0.000000 0.000000 
3.819574 17.376529 2.238733 -13.366286 -66.604286 21.251550 -0.808418 -2.888633 -3.639872 -0.712572 -2.943848 -2.866399 -5.667256 -2.930829 2.864323 12.406591 -16.475143 -7.478638 -1.950924 -0.152843 0.039424 0.000000 0.000000 0.000000 -0.378797 13.593400 -0.755323 -64.026163 -4.093834 -20.919490 -1.176278 -62.035920 -0.072203 21.268956 -5.946419 -1.182457 -0.254229 0.282895 0.000000 0.000000 0.000000 0.000000 0.000000 0.000000 0.000000 11.784627 -14.890501 -0.080384 71.891616 -16.335636 -30.830259 2.926966 29.281919 0.017933 -12.934707 11.197785 -1.302052 0.192338 -0.095011 -0.000000 0.000000 0.000000 0.000000 0.000000 0.000000 0.000000 
3.841764 17.392274 2.270528 -14.229972 -67.120422 22.255530 -0.408708 -2.938318 -3.671228 -0.624658 -3.022811 -2.877214 -5.648541 -3.009835 2.861203 12.401246 -16.531631 -7.498009 -1.952760 -0.152852 0.036198 0.000000 0.000000 0.000000 -0.243369 13.402878 -0.729151 -63.943191 -4.264957 -21.314673 -1.167001 -62.072987 -0.074013 21.230531 -5.768811 -1.147067 -0.253267 0.285825 0.000000 0.000000 0.000000 0.000000 0.000000 0.000000 0.000000 11.762090 -14.976205 -0.081341 71.553511 -16.246269 -30.827925 2.881523 30.135518 0.017103 -13.111791 11.160560 -1.315746 0.193066 -0.097601 -0.000000 0.000000 0.000000 0.000000 0.000000 0.000000 0.000000 
3.865241 17.407590 2.301756 -15.144798 -67.744457 23.417847 -0.000654 -2.982766 -3.741046 -0.534997 -3.097894 -2.897957 -5.632372 -3.085613 2.855193 12.399175 -16.555775 -7.530883 -1.952105 -0.152530 0.029936 0.000000 0.000000 0.000000 -0.086280 13.196211 -0.691363 -63.801494 -4.338484 -21.699449 -1.155337 -62.159459 -0.075766 21.178156 -5.570964 -1.107177 -0.252378 0.288575 0.000000 0.000000 0.000000 0.000000 0.000000 0.000000 0.000000 11.719757 -15.017418 -0.072357 71.175010 -16.022554 -30.796903 2.831388 31.020741 0.016160 -13.270321 11.141668 -1.329739 0.193340 -0.100649 -0.000000 0.000000 0.000000 0.000000 0.000000 0.000000 0.000000 
3.890197 17.422266 2.332348 -16.118680 -68.459911 24.741915 0.413983 -3.023427 -3.838976 -0.444065 -3.170390 -2.926108 -5.619162 -3.159251 2.848172 12.401268 -16.552904 -7.581156 -1.948021 -0.151721 0.019391 0.000000 0.000000 0.000000 0.091010 12.984798 -0.641611 -63.596437 -4.334948 -22.065349 -1.141883 -62.279729 -0.077488 21.121855 -5.364090 -1.065585 -0.251629 0.291248 0.000000 0.000000 0.000000 0.000000 0.000000 0.000000 0.000000 11.657535 -15.021537 -0.053366 70.767914 -15.661098 -30.737617 2.775885 31.932401 0.015087 -13.419547 11.139101 -1.344733 0.193208 -0.104165 -0.000000 0.000000 0.000000 0.000000 0.000000 0.000000 0.000000 
3.917091 17.436122 2.362211 -17.164733 -69.249396 26.230298 0.834640 -3.061222 -3.952898 -0.352250 -3.241085 -2.959729 -5.609562 -3.231404 2.838262 12.407563 -16.524850 -7.649687 -1.940469 -0.150385 0.004130 0.000000 0.000000 0.000000 0.287284 12.760005 -0.579273 -63.324948 -4.252056 -22.416439 -1.126474 -62.431874 -0.079205 21.070902 -5.154468 -1.023893 -0.251040 0.293873 0.000000 0.000000 0.000000 0.000000 0.000000 0.000000 0.000000 11.575314 -14.991822 -0.023052 70.347338 -15.168090 -30.660760 2.714180 32.875175 0.013856 -13.561354 11.147028 -1.360326 0.192679 -0.108180 -0.000000 0.000000 0.000000 0.000000 0.000000 0.000000 0.000000 
3.946232 17.449078 2.391332 -18.298735 -70.094469 27.890392 1.261377 -3.096867 -4.072187 -0.259767 -3.310574 -2.996583 -5.604072 -3.302508 2.825852 12.419635 -16.477634 -7.739291 -1.929112 -0.148427 -0.016862 0.000000 0.000000 0.000000 0.502203 12.527595 -0.504225 -62.989254 -4.105848 -22.751523 -1.109560 -62.601617 -0.080946 21.032856 -4.950721 -0.984201 -0.250647 0.296536 0.000000 0.000000 0.000000 0.000000 0.000000 0.000000 0.000000 11.475990 -14.935626 0.018285 69.923021 -14.550348 -30.562131 2.645536 33.857044 0.012435 -13.701778 11.159330 -1.376320 0.191816 -0.112713 0.000000 0.000000 0.000000 0.000000 0.000000 0.000000 0.000000 
3.977752 17.461034 2.419810 -19.536325 -70.976313 29.731594 1.694211 -3.130939 -4.188715 -0.166809 -3.379304 -3.035082 -5.603084 -3.372901 2.810775 12.439570 -16.416288 -7.851792 -1.913946 -0.145793 -0.044349 0.000000 0.000000 0.000000 0.736648 12.290782 -0.416422 -62.594657 -3.908847 -23.071948 -1.091556 -62.776402 -0.082739 21.012485 -4.759079 -0.947711 -0.250473 0.299312 0.000000 0.000000 0.000000 0.000000 0.000000 0.000000 0.000000 11.364034 -14.859018 0.070104 69.502067 -13.820053 -30.435552 2.569488 34.889182 0.010804 -13.843544 11.168492 -1.392115 0.190687 -0.117779 -0.000000 0.000000 0.000000 0.000000 0.000000 0.000000 0.000000 
4.011851 17.471949 2.447710 -20.894583 -71.876514 31.762414 2.131884 -3.163979 -4.296790 -0.073731 -3.447585 -3.074146 -5.606814 -3.442818 2.792619 12.469756 -16.346144 -7.988372 -1.895090 -0.142447 -0.078939 0.000000 0.000000 0.000000 0.992610 12.053250 -0.316209 -62.149190 -3.673135 -23.379653 -1.072854 -62.944399 -0.084599 21.011281 -4.583275 -0.915224 -0.250522 0.302273 0.000000 0.000000 0.000000 0.000000 0.000000 0.000000 0.000000 11.244998 -14.767787 0.131306 69.088974 -12.992551 -30.272119 2.485858 35.983572 0.008941 -13.987381 11.167198 -1.407010 0.189364 -0.123392 0.000000 0.000000 0.000000 0.000000 0.000000 0.000000 0.000000 
4.048195 17.481800 2.475074 -22.375285 -72.777698 33.984103 2.570711 -3.196864 -4.394907 0.018809 -3.515920 -3.113617 -5.615116 -3.512777 2.770830 12.512775 -16.271249 -8.148985 -1.872962 -0.138399 -0.120886 0.000000 0.000000 0.000000 1.273816 11.814586 -0.203877 -61.662708 -3.402765 -23.678521 -1.053795 -63.098530 -0.086539 21.027235 -4.424067 -0.886537 -0.250803 0.305458 0.000000 0.000000 0.000000 0.000000 0.000000 0.000000 0.000000 11.125465 -14.666596 0.200838 68.684692 -12.087796 -30.064023 2.394977 37.151109 0.006840 -14.130208 11.148641 -1.419605 0.187925 -0.129557 0.000000 0.000000 0.000000 0.000000 0.000000 0.000000 0.000000 
4.086363 17.490548 2.502076 -23.979989 -73.661599 36.399454 3.008694 -3.230583 -4.487979 0.110844 -3.585164 -3.153965 -5.627215 -3.583626 2.747519 12.571334 -16.198897 -8.335348 -1.847455 -0.133592 -0.170905 0.000000 0.000000 0.000000 1.582224 11.590259 -0.080467 -61.147575 -3.120009 -23.964487 -1.035307 -63.222458 -0.088555 21.055540 -4.284268 -0.862154 -0.251319 0.308955 0.000000 0.000000 0.000000 0.000000 0.000000 0.000000 0.000000 11.012294 -14.563148 0.276038 68.284321 -11.122398 -29.796484 2.297829 38.397379 0.004512 -14.270512 11.108722 -1.429301 0.186485 -0.136275 0.000000 0.000000 0.000000 0.000000 0.000000 0.000000 0.000000 
4.125980 17.498187 2.528733 -25.690838 -74.514358 38.989521 3.439730 -3.266263 -4.579967 0.201460 -3.656003 -3.196605 -5.642903 -3.656165 2.719888 12.646912 -16.129443 -8.544238 -1.819812 -0.128159 -0.228299 0.000000 0.000000 0.000000 1.920157 11.365492 0.053662 -60.612339 -2.807857 -24.247378 -1.017217 -63.325861 -0.090624 21.089931 -4.158239 -0.840574 -0.252039 0.312699 0.000000 0.000000 0.000000 0.000000 0.000000 0.000000 0.000000 10.912080 -14.457817 0.356555 67.885129 -10.121953 -29.471823 2.195441 39.729054 0.001976 -14.399548 11.043941 -1.434697 0.185093 -0.143541 0.000000 0.000000 0.000000 0.000000 0.000000 0.000000 0.000000 
4.166058 17.504713 2.555295 -27.487808 -75.321460 41.744132 3.864392 -3.304492 -4.683512 0.291545 -3.729308 -3.243104 -5.660815 -3.731290 2.691557 12.740799 -16.070442 -8.777096 -1.790000 -0.122064 -0.293596 0.000000 0.000000 0.000000 2.284985 11.158455 0.197101 -60.068600 -2.487929 -24.520921 -1.000617 -63.397647 -0.092710 21.122411 -4.047248 -0.821696 -0.252963 0.316719 0.000000 0.000000 0.000000 0.000000 0.000000 0.000000 0.000000 10.830547 -14.358677 0.439493 67.475601 -9.101038 -29.081141 2.089810 41.142763 -0.000729 -14.514084 10.955012 -1.435392 0.183887 -0.151344 0.000000 0.000000 0.000000 0.000000 0.000000 0.000000 0.000000 
4.206119 17.510135 2.581949 -29.344365 -76.073800 44.636368 4.282059 -3.345127 -4.806953 0.381324 -3.805105 -3.295235 -5.680612 -3.809090 2.660722 12.852813 -16.022232 -9.030686 -1.759307 -0.115458 -0.365974 0.000000 0.000000 0.000000 2.671739 10.957362 0.349115 -59.522602 -2.144824 -24.792494 -0.985446 -63.452021 -0.094761 21.145740 -3.945217 -0.804220 -0.254034 0.320887 0.000000 0.000000 0.000000 0.000000 0.000000 0.000000 0.000000 10.772207 -14.265565 0.524509 67.048354 -8.080144 -28.633175 1.982669 42.636507 -0.003554 -14.606771 10.843951 -1.431086 0.182923 -0.159669 0.000000 0.000000 0.000000 0.000000 0.000000 0.000000 0.000000 
4.245161 17.514414 2.609019 -31.228389 -76.763119 47.641278 4.696881 -3.387285 -4.961612 0.472044 -3.883185 -3.354371 -5.701437 -3.889344 2.629028 12.981851 -15.988609 -9.303982 -1.728372 -0.108408 -0.445171 0.000000 0.000000 0.000000 3.071422 10.765630 0.508469 -58.980425 -1.780807 -25.061715 -0.972160 -63.495424 -0.096721 21.154648 -3.849542 -0.787342 -0.255229 0.325102 0.000000 0.000000 0.000000 0.000000 0.000000 0.000000 0.000000 10.739768 -14.182287 0.610386 66.592841 -7.072685 -28.134651 1.876151 44.202534 -0.006447 -14.674012 10.715683 -1.421879 0.182303 -0.168495 0.000000 0.000000 0.000000 0.000000 0.000000 0.000000 0.000000 
